<?xml version="1.0" standalone="no"?>
<!DOCTYPE svg PUBLIC "-//W3C//DTD SVG 20010904//EN"
 "http://www.w3.org/TR/2001/REC-SVG-20010904/DTD/svg10.dtd">
<svg version="1.0" xmlns="http://www.w3.org/2000/svg"
 width="175.000000pt" height="175.000000pt" viewBox="0 0 175.000000 175.000000"
 preserveAspectRatio="xMidYMid meet">
<metadata>
Created by potrace 1.16, written by Peter Selinger 2001-2019
</metadata>
<g transform="translate(0.000000,175.000000) scale(0.100000,-0.100000)"
fill="#000000" stroke="none">
<path d="M272 1738 c-86 -13 -165 -63 -217 -137 -28 -41 -55 -131 -55 -187 0
-32 24 -119 39 -143 7 -10 65 34 247 186 132 109 239 203 239 209 0 16 -102
65 -152 72 -27 4 -72 4 -101 0z"/>
<path d="M1379 1739 c-56 -8 -129 -39 -148 -63 -8 -9 -12 -18 -10 -20 18 -14
448 -372 461 -383 15 -13 18 -11 33 17 37 72 35 201 -4 279 -26 50 -91 116
-140 140 -50 26 -133 39 -192 30z"/>
<path d="M709 1505 c-166 -33 -356 -158 -449 -295 -84 -123 -123 -225 -140
-363 -24 -187 23 -372 133 -529 10 -15 3 -27 -55 -85 -79 -80 -93 -109 -78
-164 13 -48 42 -69 99 -69 41 0 48 4 118 76 l74 75 47 -30 c26 -16 76 -43 112
-60 219 -101 546 -71 728 67 l33 25 78 -77 c74 -72 81 -76 123 -76 35 0 51 6
71 26 55 54 42 108 -46 201 -60 63 -69 77 -59 91 35 50 96 184 113 251 28 104
28 267 0 374 -27 102 -100 243 -169 323 -63 74 -200 170 -289 204 -132 50
-302 63 -444 35z m213 -316 c39 -21 48 -68 48 -243 0 -90 4 -166 9 -168 4 -2
40 -38 80 -80 79 -87 86 -109 45 -157 -21 -25 -33 -31 -66 -31 -38 0 -47 7
-140 97 -67 66 -102 108 -109 133 -6 21 -9 111 -7 223 l3 189 28 24 c30 26 75
31 109 13z"/>
</g>
</svg>
